HIERARCHY
ROOT mixamorig:Hips
{
	OFFSET 0.000000 201.639420 0.000000
	CHANNELS 6 Xposition Yposition Zposition Xrotation Yrotation Zrotation
	JOINT mixamorig:Spine
	{
		OFFSET 0.006200 19.524994 -2.481800
		CHANNELS 3 Xrotation Yrotation Zrotation
		JOINT mixamorig:Spine1
		{
			OFFSET -0.000900 22.835007 -2.825400
			CHANNELS 3 Xrotation Yrotation Zrotation
			JOINT mixamorig:Spine2
			{
				OFFSET -0.020600 26.552490 -3.193300
				CHANNELS 3 Xrotation Yrotation Zrotation
				JOINT mixamorig:Neck
				{
					OFFSET -0.060000 30.701813 1.352200
					CHANNELS 3 Xrotation Yrotation Zrotation
					JOINT mixamorig:Head
					{
						OFFSET -0.087200 22.547607 3.670900
						CHANNELS 3 Xrotation Yrotation Zrotation
						JOINT mixamorig:HeadTop_End
						{
							OFFSET -0.830600 40.355194 7.893500
							CHANNELS 3 Xrotation Yrotation Zrotation
							End Site
							{
								OFFSET 0.000000 30.592346 0.000000
							}
						}
						JOINT mixamorig:RightEye
						{
							OFFSET -6.302100 18.118591 16.197100
							CHANNELS 3 Xrotation Yrotation Zrotation
							End Site
							{
								OFFSET 0.000000 30.592346 0.000000
							}
						}
						JOINT mixamorig:LeftEye
						{
							OFFSET 6.741500 18.382690 16.401899
							CHANNELS 3 Xrotation Yrotation Zrotation
							End Site
							{
								OFFSET 0.000000 30.592346 0.000000
							}
						}
					}
				}
				JOINT mixamorig:LeftShoulder
				{
					OFFSET 11.924900 18.230499 1.425400
					CHANNELS 3 Xrotation Yrotation Zrotation
					JOINT mixamorig:LeftArm
					{
						OFFSET 25.435989 -0.697632 -5.229300
						CHANNELS 3 Xrotation Yrotation Zrotation
						JOINT mixamorig:LeftForeArm
						{
							OFFSET 54.684776 0.000000 0.000000
							CHANNELS 3 Xrotation Yrotation Zrotation
							JOINT mixamorig:LeftHand
							{
								OFFSET 55.098175 0.000000 0.000000
								CHANNELS 3 Xrotation Yrotation Zrotation
								JOINT mixamorig:LeftHandMiddle1
								{
									OFFSET 23.369751 0.000000 0.000000
									CHANNELS 3 Xrotation Yrotation Zrotation
									JOINT mixamorig:LeftHandMiddle2
									{
										OFFSET 6.378677 0.000000 0.000000
										CHANNELS 3 Xrotation Yrotation Zrotation
										JOINT mixamorig:LeftHandMiddle3
										{
											OFFSET 6.148331 0.000000 0.000000
											CHANNELS 3 Xrotation Yrotation Zrotation
											JOINT mixamorig:LeftHandMiddle4
											{
												OFFSET 6.582504 0.000000 0.000000
												CHANNELS 3 Xrotation Yrotation Zrotation
												End Site
												{
													OFFSET -1.168900 6.395691 1.028606
												}
											}
										}
									}
								}
								JOINT mixamorig:LeftHandThumb1
								{
									OFFSET 7.235672 -3.848206 5.434273
									CHANNELS 3 Xrotation Yrotation Zrotation
									JOINT mixamorig:LeftHandThumb2
									{
										OFFSET 6.568451 -3.792297 3.792300
										CHANNELS 3 Xrotation Yrotation Zrotation
										JOINT mixamorig:LeftHandThumb3
										{
											OFFSET 6.063080 -3.500519 3.500518
											CHANNELS 3 Xrotation Yrotation Zrotation
											JOINT mixamorig:LeftHandThumb4
											{
												OFFSET 4.793182 -2.767334 2.767349
												CHANNELS 3 Xrotation Yrotation Zrotation
												End Site
												{
													OFFSET 0.101639 6.054260 1.275483
												}
											}
										}
									}
								}
								JOINT mixamorig:LeftHandIndex1
								{
									OFFSET 23.101074 -0.309540 4.992809
									CHANNELS 3 Xrotation Yrotation Zrotation
									JOINT mixamorig:LeftHandIndex2
									{
										OFFSET 6.226883 0.000000 0.000000
										CHANNELS 3 Xrotation Yrotation Zrotation
										JOINT mixamorig:LeftHandIndex3
										{
											OFFSET 6.094330 0.000000 0.000000
											CHANNELS 3 Xrotation Yrotation Zrotation
											JOINT mixamorig:LeftHandIndex4
											{
												OFFSET 5.482605 0.000000 0.000000
												CHANNELS 3 Xrotation Yrotation Zrotation
												End Site
												{
													OFFSET -1.427902 5.233032 0.797164
												}
											}
										}
									}
								}
								JOINT mixamorig:LeftHandRing1
								{
									OFFSET 22.299240 0.021149 -3.964172
									CHANNELS 3 Xrotation Yrotation Zrotation
									JOINT mixamorig:LeftHandRing2
									{
										OFFSET 6.321869 0.000000 0.000000
										CHANNELS 3 Xrotation Yrotation Zrotation
										JOINT mixamorig:LeftHandRing3
										{
											OFFSET 5.899796 0.000000 0.000000
											CHANNELS 3 Xrotation Yrotation Zrotation
											JOINT mixamorig:LeftHandRing4
											{
												OFFSET 6.517899 0.000000 0.000000
												CHANNELS 3 Xrotation Yrotation Zrotation
												End Site
												{
													OFFSET -1.637299 6.232208 0.980890
												}
											}
										}
									}
								}
								JOINT mixamorig:LeftHandPinky1
								{
									OFFSET 20.463791 -0.302338 -8.562233
									CHANNELS 3 Xrotation Yrotation Zrotation
									JOINT mixamorig:LeftHandPinky2
									{
										OFFSET 6.908646 0.000000 0.000000
										CHANNELS 3 Xrotation Yrotation Zrotation
										JOINT mixamorig:LeftHandPinky3
										{
											OFFSET 4.622849 0.000000 0.000000
											CHANNELS 3 Xrotation Yrotation Zrotation
											JOINT mixamorig:LeftHandPinky4
											{
												OFFSET 5.216080 0.000000 0.000000
												CHANNELS 3 Xrotation Yrotation Zrotation
												End Site
												{
													OFFSET -0.606308 5.116241 0.814926
												}
											}
										}
									}
								}
							}
						}
					}
				}
				JOINT mixamorig:RightShoulder
				{
					OFFSET -12.001300 18.284088 1.348900
					CHANNELS 3 Xrotation Yrotation Zrotation
					JOINT mixamorig:RightArm
					{
						OFFSET -25.308500 -0.751312 -5.164599
						CHANNELS 3 Xrotation Yrotation Zrotation
						JOINT mixamorig:RightForeArm
						{
							OFFSET -54.684429 0.000000 0.000000
							CHANNELS 3 Xrotation Yrotation Zrotation
							JOINT mixamorig:RightHand
							{
								OFFSET -55.150291 0.000000 0.000000
								CHANNELS 3 Xrotation Yrotation Zrotation
								JOINT mixamorig:RightHandMiddle1
								{
									OFFSET -23.317566 0.000000 0.000000
									CHANNELS 3 Xrotation Yrotation Zrotation
									JOINT mixamorig:RightHandMiddle2
									{
										OFFSET -6.378403 0.000000 0.000000
										CHANNELS 3 Xrotation Yrotation Zrotation
										JOINT mixamorig:RightHandMiddle3
										{
											OFFSET -6.148193 0.000000 0.000000
											CHANNELS 3 Xrotation Yrotation Zrotation
											JOINT mixamorig:RightHandMiddle4
											{
												OFFSET -6.583389 0.000000 0.000000
												CHANNELS 3 Xrotation Yrotation Zrotation
												End Site
												{
													OFFSET 1.171692 6.395905 1.029786
												}
											}
										}
									}
								}
								JOINT mixamorig:RightHandThumb1
								{
									OFFSET -7.190521 -3.860474 5.435846
									CHANNELS 3 Xrotation Yrotation Zrotation
									JOINT mixamorig:RightHandThumb2
									{
										OFFSET -6.567429 -3.791718 3.791708
										CHANNELS 3 Xrotation Yrotation Zrotation
										JOINT mixamorig:RightHandThumb3
										{
											OFFSET -6.062469 -3.500153 3.500166
											CHANNELS 3 Xrotation Yrotation Zrotation
											JOINT mixamorig:RightHandThumb4
											{
												OFFSET -4.792618 -2.767029 2.767022
												CHANNELS 3 Xrotation Yrotation Zrotation
												End Site
												{
													OFFSET -0.100327 6.053253 1.276754
												}
											}
										}
									}
								}
								JOINT mixamorig:RightHandIndex1
								{
									OFFSET -23.048981 -0.310791 4.992554
									CHANNELS 3 Xrotation Yrotation Zrotation
									JOINT mixamorig:RightHandIndex2
									{
										OFFSET -6.227539 0.000000 0.000000
										CHANNELS 3 Xrotation Yrotation Zrotation
										JOINT mixamorig:RightHandIndex3
										{
											OFFSET -6.095047 0.000000 0.000000
											CHANNELS 3 Xrotation Yrotation Zrotation
											JOINT mixamorig:RightHandIndex4
											{
												OFFSET -5.484772 0.000000 0.000000
												CHANNELS 3 Xrotation Yrotation Zrotation
												End Site
												{
													OFFSET 1.420593 5.237305 0.797056
												}
											}
										}
									}
								}
								JOINT mixamorig:RightHandRing1
								{
									OFFSET -22.246323 0.020569 -3.963762
									CHANNELS 3 Xrotation Yrotation Zrotation
									JOINT mixamorig:RightHandRing2
									{
										OFFSET -6.322128 0.000000 0.000000
										CHANNELS 3 Xrotation Yrotation Zrotation
										JOINT mixamorig:RightHandRing3
										{
											OFFSET -5.900024 0.000000 0.000000
											CHANNELS 3 Xrotation Yrotation Zrotation
											JOINT mixamorig:RightHandRing4
											{
												OFFSET -6.518356 0.000000 0.000000
												CHANNELS 3 Xrotation Yrotation Zrotation
												End Site
												{
													OFFSET 1.636398 6.232697 0.982186
												}
											}
										}
									}
								}
								JOINT mixamorig:RightHandPinky1
								{
									OFFSET -20.411011 -0.303314 -8.561701
									CHANNELS 3 Xrotation Yrotation Zrotation
									JOINT mixamorig:RightHandPinky2
									{
										OFFSET -6.907349 0.000000 0.000000
										CHANNELS 3 Xrotation Yrotation Zrotation
										JOINT mixamorig:RightHandPinky3
										{
											OFFSET -4.623840 0.000000 0.000000
											CHANNELS 3 Xrotation Yrotation Zrotation
											JOINT mixamorig:RightHandPinky4
											{
												OFFSET -5.218353 0.000000 0.000000
												CHANNELS 3 Xrotation Yrotation Zrotation
												End Site
												{
													OFFSET 0.602097 5.118835 0.816273
												}
											}
										}
									}
								}
							}
						}
					}
				}
			}
		}
	}
	JOINT mixamorig:LeftUpLeg
	{
		OFFSET 18.168400 -13.561905 -0.039000
		CHANNELS 3 Xrotation Yrotation Zrotation
		JOINT mixamorig:LeftLeg
		{
			OFFSET 0.577358 -80.825211 -3.695000
			CHANNELS 3 Xrotation Yrotation Zrotation
			JOINT mixamorig:LeftFoot
			{
				OFFSET -0.577356 -83.370262 -6.520700
				CHANNELS 3 Xrotation Yrotation Zrotation
				JOINT mixamorig:LeftToeBase
				{
					OFFSET 0.750401 -20.798306 25.135401
					CHANNELS 3 Xrotation Yrotation Zrotation
					JOINT mixamorig:LeftToe_End
					{
						OFFSET -0.000500 0.001200 19.917799
						CHANNELS 3 Xrotation Yrotation Zrotation
						End Site
						{
							OFFSET 0.000000 19.917805 0.000000
						}
					}
				}
			}
		}
	}
	JOINT mixamorig:RightUpLeg
	{
		OFFSET -18.162500 -13.585098 -0.041000
		CHANNELS 3 Xrotation Yrotation Zrotation
		JOINT mixamorig:RightLeg
		{
			OFFSET -0.595024 -80.945297 -3.631900
			CHANNELS 3 Xrotation Yrotation Zrotation
			JOINT mixamorig:RightFoot
			{
				OFFSET 0.595024 -83.218193 -6.561200
				CHANNELS 3 Xrotation Yrotation Zrotation
				JOINT mixamorig:RightToeBase
				{
					OFFSET -0.753601 -20.807106 25.115000
					CHANNELS 3 Xrotation Yrotation Zrotation
					JOINT mixamorig:RightToe_End
					{
						OFFSET 0.000299 0.001700 19.918200
						CHANNELS 3 Xrotation Yrotation Zrotation
						End Site
						{
							OFFSET 0.000000 19.918203 0.000000
						}
					}
				}
			}
		}
	}
}
MOTION
Frames: 4
Frame Time: 0.033333
-24.641483 190.340469 28.663906 -9.154322 18.475149 19.682717 -2.792376 36.530823 0.815415 -3.410464 15.038366 6.689918 -4.270909 14.356136 7.837745 0.675828 -17.308710 -6.697303 -7.627805 -70.841793 -8.698827 -0.000000 0.000000 -0.000001 -0.000000 0.000000 -0.000001 -0.000000 0.000000 -0.000001 -1.166747 -23.516007 1.466901 -52.961765 -1.351010 -34.788841 -0.000215 -103.226541 -0.000217 1.425259 -33.397948 71.571988 -10.056236 1.704459 -66.452837 9.403912 4.651858 -127.436672 4.459293 5.683692 -76.216100 0.000003 -0.000000 0.000002 -33.539111 -2.823482 -6.983074 15.750450 2.024211 9.776233 -19.014287 -4.196097 2.297163 -0.000001 0.000001 -0.000001 22.826070 15.849804 -67.787742 8.251257 5.337667 -114.255657 3.194165 5.214909 -62.953225 0.000001 -0.000000 0.000001 -8.177079 3.607030 -70.702485 4.957023 5.782617 -81.195691 0.178534 1.436686 -14.166554 0.000000 -0.000001 -0.000003 -14.409206 -0.336952 -66.466647 2.177871 4.557520 -51.064731 2.822961 5.008886 -58.789112 0.000000 0.000003 -0.000002 17.428653 33.063744 -26.338449 -72.282246 56.504236 38.876511 0.000046 76.010839 -0.000036 4.836687 21.515808 -49.998494 -4.189752 -6.405203 86.391600 4.512986 -4.654937 88.223901 0.215529 -1.401814 17.481446 -0.000001 0.000001 -0.000001 1.779329 9.265972 -10.421295 -5.645308 -9.781773 3.760251 2.033482 5.579513 -14.139538 -0.000002 0.000001 0.000001 -4.985694 -4.985562 77.934501 4.257376 -4.640007 85.070238 1.904934 -3.758364 53.744344 -0.000002 0.000003 0.000004 -5.051756 -9.842013 105.401307 2.486821 -4.121532 62.197390 0.516963 -2.134467 27.227422 -0.000000 0.000002 -0.000001 -25.554477 -20.181590 110.554555 0.523964 -2.147980 27.414170 2.346358 -4.044537 60.225111 -0.000001 0.000002 0.000000 -10.048691 -8.672625 -28.963451 24.846674 -4.527288 -5.732826 4.477663 -28.146426 22.111892 -4.194077 4.869682 -3.188780 0.000000 0.000000 -0.000000 9.007548 -4.546476 -24.036257 42.376000 7.752903 3.395708 28.836932 26.330067 -7.893472 -45.631609 14.979587 -26.360429 0.000002 0.000001 -0.000000 
-25.134487 190.675949 29.043190 -8.847454 19.063587 18.955020 -2.349124 38.987826 -0.202875 -3.325663 15.407220 6.421874 -4.225754 14.728504 7.629097 -0.844827 -17.516085 -6.317031 -8.999846 -71.025191 -11.195625 0.000000 0.000000 -0.000000 0.000000 0.000000 -0.000000 0.000000 0.000000 -0.000000 -0.825538 -23.449866 4.282781 -53.922148 12.123607 -32.733743 -0.000006 -116.712592 -0.000021 8.975003 -24.874388 71.552010 -10.559613 1.219877 -65.623850 9.443706 4.621220 -127.928883 4.362476 5.659175 -75.236514 -0.000004 -0.000002 -0.000004 -34.264310 -2.905640 -7.093232 15.750461 2.024203 9.776225 -19.014290 -4.196095 2.297159 -0.000001 0.000001 -0.000001 23.150607 15.835869 -68.191304 8.287624 5.321184 -114.647225 3.166501 5.200738 -62.648517 -0.000002 -0.000002 -0.000002 -8.833905 3.198225 -70.036487 4.786671 5.753754 -79.500718 0.095010 1.051911 -10.321879 0.000001 -0.000000 0.000002 -14.942529 -0.989968 -65.502436 2.137778 4.524961 -50.558317 2.605902 4.871302 -56.268980 0.000002 0.000000 -0.000001 19.089008 33.587196 -29.204513 -77.491501 58.507462 42.644108 0.000052 81.038152 -0.000044 7.316739 25.907888 -51.925243 -4.189723 -6.405193 86.391593 4.512982 -4.654937 88.223894 0.215531 -1.401812 17.481447 0.000000 -0.000001 0.000000 1.779436 9.266014 -10.421382 -5.645311 -9.781772 3.760265 2.033503 5.579505 -14.139553 -0.000002 0.000002 0.000000 -4.985669 -4.985557 77.934501 4.257377 -4.640003 85.070238 1.904934 -3.758362 53.744330 -0.000002 0.000003 0.000001 -5.051802 -9.842019 105.401328 2.486814 -4.121521 62.197376 0.516974 -2.134479 27.227424 -0.000000 0.000002 0.000001 -25.554273 -20.181655 110.554787 0.523959 -2.147979 27.414182 2.346359 -4.044531 60.225118 0.000002 0.000003 0.000002 -10.709538 -8.304403 -28.513914 26.445692 -2.769789 -5.280181 4.615855 -27.859247 22.246455 -5.813121 4.386756 -2.303822 0.000000 -0.000002 0.000000 8.236720 -3.759416 -23.868004 42.040706 8.314604 4.328938 29.519091 28.015631 -10.298396 -45.369019 15.557115 -26.298779 0.000001 -0.000001 0.000000 
-25.575645 191.021011 29.335030 -8.677244 19.565951 18.360366 -2.120639 41.284303 -0.809528 -3.377615 15.768846 6.152416 -4.314525 15.122143 7.370585 -0.852490 -17.967137 -5.368366 -11.940748 -71.215247 -14.725364 -0.000000 -0.000000 0.000003 -0.000000 -0.000000 0.000003 -0.000000 -0.000000 0.000003 -0.964246 -23.455828 4.467797 -56.101251 21.372560 -29.586074 -0.000006 -126.425162 -0.000005 12.537524 -21.736881 68.024846 -10.920208 0.854426 -65.016209 9.472666 4.598588 -128.289299 4.291841 5.640183 -74.519174 -0.000001 0.000002 0.000001 -34.795948 -2.964237 -7.171350 15.750433 2.024207 9.776226 -19.014285 -4.196095 2.297161 0.000000 0.000001 0.000000 23.390066 15.824997 -68.484210 8.314185 5.308979 -114.933970 3.146290 5.190295 -62.425347 0.000001 -0.000003 -0.000000 -9.309517 2.888217 -69.549631 4.662479 5.729495 -78.259447 0.050312 0.767024 -7.506751 0.000003 -0.000000 0.000002 -15.320886 -1.482038 -64.796673 2.108617 4.500879 -50.187465 2.450925 4.764552 -54.423917 0.000002 -0.000000 0.000002 20.407944 34.584878 -29.962223 -78.251729 61.997613 42.158441 -0.000197 85.459163 0.000287 11.226453 27.270328 -56.774605 -4.189740 -6.405190 86.391600 4.512984 -4.654941 88.223894 0.215530 -1.401809 17.481444 -0.000003 -0.000002 -0.000000 1.779519 9.266152 -10.421659 -5.645312 -9.781774 3.760262 2.033477 5.579510 -14.139548 0.000004 0.000002 0.000002 -4.985698 -4.985545 77.934507 4.257373 -4.640007 85.070238 1.904935 -3.758364 53.744330 0.000002 0.000000 -0.000004 -5.051891 -9.842029 105.401287 2.486812 -4.121524 62.197390 0.516979 -2.134478 27.227427 0.000001 0.000003 -0.000002 -25.554115 -20.181722 110.555027 0.523960 -2.147986 27.414192 2.346362 -4.044525 60.225097 -0.000002 0.000001 0.000001 -11.135755 -7.980275 -28.149588 27.683026 -1.248247 -4.813938 4.868245 -27.560199 22.329352 -7.308302 3.911147 -1.411909 -0.000000 -0.000001 -0.000000 8.241556 -3.225346 -22.868660 42.066592 9.817075 4.536340 26.642454 27.199051 -12.001236 -41.803889 15.151525 -26.130495 0.000000 0.000001 0.000000 
-25.976429 191.397034 29.573227 -8.614463 20.013431 17.867121 -2.129088 43.284630 -1.132516 -3.641714 16.230128 5.923162 -4.651546 15.608700 7.136870 0.177820 -18.452340 -4.556719 -13.312729 -71.582541 -16.949307 0.000000 0.000000 -0.000002 0.000000 0.000000 -0.000002 0.000000 0.000000 -0.000002 -1.039020 -23.626524 4.008677 -60.033545 28.740791 -24.936358 -0.000013 -132.075887 -0.000007 13.682658 -22.657925 63.341392 -11.176365 0.583964 -64.574036 9.493543 4.582073 -128.550089 4.240881 5.625884 -74.000161 0.000001 0.000002 -0.000001 -35.180870 -3.005314 -7.223351 15.750467 2.024208 9.776224 -19.014285 -4.196096 2.297159 0.000000 0.000000 0.000000 23.565181 15.817764 -68.693350 8.333361 5.300053 -115.141458 3.131682 5.182676 -62.263861 0.000000 -0.000001 -0.000001 -9.650426 2.657856 -69.195834 4.572976 5.710238 -77.361325 0.026722 0.559670 -5.469931 -0.000006 0.000000 -0.000001 -15.587581 -1.846102 -64.283794 2.087593 4.483317 -49.919117 2.340995 4.684218 -53.089165 -0.000002 0.000000 0.000001 21.655253 35.957292 -29.522632 -77.089736 66.644027 39.940149 -0.000614 86.647821 0.000574 16.115485 29.101110 -63.494081 -4.189751 -6.405196 86.391614 4.512981 -4.654935 88.223894 0.215534 -1.401811 17.481446 0.000000 -0.000001 -0.000000 1.779599 9.266301 -10.421967 -5.645302 -9.781769 3.760257 2.033497 5.579509 -14.139543 -0.000002 0.000000 -0.000000 -4.985694 -4.985551 77.934501 4.257377 -4.640006 85.070238 1.904933 -3.758360 53.744341 0.000002 -0.000001 0.000002 -5.051954 -9.842041 105.401287 2.486814 -4.121513 62.197390 0.516972 -2.134471 27.227422 0.000001 0.000001 0.000001 -25.553937 -20.181781 110.555266 0.523961 -2.147978 27.414171 2.346364 -4.044531 60.225111 0.000000 0.000000 0.000000 -11.321252 -7.782925 -27.812062 28.491758 0.000852 -4.401169 5.147816 -27.265326 22.434414 -8.530019 3.534979 -0.724954 -0.000000 0.000001 -0.000000 9.054286 -3.216788 -22.051932 41.337247 9.870697 4.663981 23.540720 26.862610 -13.396841 -38.653963 14.257029 -25.290196 0.000000 0.000001 0.000000 
